<?xml version="1.0" encoding="UTF-8"?>
<svg viewBox="0 0 312 53" version="1.1" xmlns="http://www.w3.org/2000/svg" xmlns:xlink="http://www.w3.org/1999/xlink">
    <title>METRO Logo</title>
    <g id="Style-Guide-" stroke="none" stroke-width="1" fill="none" fill-rule="evenodd">
        <g id="Style-Guide" transform="translate(-280.000000, -45.000000)">
            <g id="METRO-Logo" transform="translate(280.000000, 45.000000)">
                <path d="M25.7976654,21.5486381 C25.7976654,21.5486381 35.8132296,4.35019455 36.7237354,2.73151751 C37.4319066,1.51750973 38.5447471,0.708171206 39.5564202,0.708171206 C40.9727626,0.708171206 51.5953307,0.708171206 51.5953307,0.708171206 L51.5953307,34.5992218 L37.9377432,34.5992218 L37.9377432,13.6575875 L25.7976654,34.5992218 L13.6575875,13.6575875 L13.6575875,34.5992218 L0,34.5992218 L0,0.708171206 C0,0.708171206 10.5214008,0.708171206 12.0389105,0.708171206 C12.9494163,0.708171206 14.0622568,1.51750973 14.8715953,2.73151751 C15.6809339,4.35019455 25.7976654,21.5486381 25.7976654,21.5486381" id="Path" fill="#1D1D1B" fill-rule="nonzero"></path>
                <rect id="Rectangle" x="0.101167315" y="0" width="311.898833" height="52.5058366"></rect>
                <path d="M114.92607,6.17120623 L114.92607,0.708171206 C114.92607,0.708171206 58.9805447,0.708171206 57.2607004,0.708171206 C55.540856,0.708171206 53.922179,2.0233463 53.922179,4.14785992 C53.922179,6.27237354 53.922179,29.844358 53.922179,31.2607004 C53.922179,32.6770428 54.9338521,34.5992218 57.2607004,34.5992218 C59.5875486,34.5992218 85.8910506,34.5992218 85.8910506,34.5992218 L85.8910506,29.2373541 C85.8910506,29.2373541 68.8949416,29.2373541 68.2879377,29.2373541 C67.6809339,29.2373541 67.1750973,28.7315175 67.1750973,28.0233463 C67.1750973,27.3151751 67.1750973,20.4357977 67.1750973,20.4357977 L85.7898833,20.4357977 L85.7898833,15.07393 L67.2762646,15.07393 C67.2762646,15.07393 67.2762646,7.89105058 67.2762646,7.28404669 C67.2762646,6.77821012 67.6809339,6.17120623 68.3891051,6.17120623 C69.0972763,6.17120623 90.7470817,6.17120623 90.7470817,6.17120623 L90.7470817,34.5992218 L104.303502,34.5992218 L104.303502,6.17120623 L114.92607,6.17120623" id="Path" fill="#1D1D1B" fill-rule="nonzero"></path>
                <path d="M117.354086,34.5992218 L117.354086,0.708171206 C117.354086,0.708171206 149.727626,0.708171206 151.245136,0.708171206 C152.964981,0.708171206 154.583658,2.0233463 154.583658,4.04669261 C154.583658,6.27237354 154.583658,19.7276265 154.583658,21.8521401 C154.583658,23.9766537 152.762646,25.1906615 151.245136,25.1906615 C149.626459,25.1906615 149.22179,25.1906615 149.22179,25.1906615 L154.988327,34.5992218 L140.92607,34.5992218 L130.910506,18.5136187 C130.910506,18.5136187 139.40856,18.5136187 139.914397,18.5136187 C140.319066,18.5136187 141.027237,18.1089494 141.027237,17.4007782 C141.027237,16.4902724 141.027237,7.78988327 141.027237,7.08171206 C141.027237,6.47470817 140.420233,5.9688716 140.015564,5.9688716 C139.712062,5.9688716 130.910506,5.9688716 130.910506,5.9688716 L130.910506,34.3968872 L117.354086,34.3968872" id="Path" fill="#1D1D1B" fill-rule="nonzero"></path>
                <path d="M181.494163,28.1245136 C181.494163,28.7315175 180.988327,29.2373541 180.381323,29.2373541 C178.054475,29.2373541 173.097276,29.2373541 171.175097,29.2373541 C170.568093,29.2373541 170.062257,28.7315175 170.062257,28.1245136 C170.062257,24.1789883 170.062257,10.8249027 170.062257,7.18287938 C170.062257,6.57587549 170.568093,6.07003891 171.175097,6.07003891 C173.097276,6.07003891 178.054475,6.07003891 180.381323,6.07003891 C180.988327,6.07003891 181.494163,6.57587549 181.494163,7.18287938 C181.494163,8.90272374 181.494163,25.4941634 181.494163,28.1245136 M195.050584,4.04669261 C195.050584,2.22568093 193.533074,0.708171206 191.712062,0.708171206 C188.070039,0.708171206 164.801556,0.708171206 159.945525,0.708171206 C158.124514,0.708171206 156.607004,2.22568093 156.607004,4.04669261 C156.607004,7.18287938 156.607004,26.2023346 156.607004,31.1595331 C156.607004,32.9805447 158.124514,34.4980545 159.945525,34.4980545 C164.801556,34.4980545 188.070039,34.4980545 191.712062,34.4980545 C193.533074,34.4980545 195.050584,32.9805447 195.050584,31.1595331 C195.050584,28.3268482 195.050584,5.66536965 195.050584,4.04669261 Z" id="Shape" fill="#1D1D1B" fill-rule="nonzero"></path>
                <polyline id="Path" fill="#0053A1" fill-rule="nonzero" points="183.416342 51.4941634 221.55642 51.4941634 224.692607 48.3579767 186.552529 48.3579767 183.416342 51.4941634"></polyline>
                <polyline id="Path" fill="#0053A1" fill-rule="nonzero" points="190.599222 44.1089494 228.7393 44.1089494 233.190661 39.6575875 194.949416 39.6575875 190.599222 44.1089494"></polyline>
                <polyline id="Path" fill="#0053A1" fill-rule="nonzero" points="198.490272 35.9143969 236.63035 35.9143969 242.396887 30.1478599 204.256809 30.1478599 198.490272 35.9143969"></polyline>
                <polyline id="Path" fill="#0053A1" fill-rule="nonzero" points="207.190661 27.1128405 245.431907 27.1128405 252.412451 20.1322957 214.272374 20.1322957 207.190661 27.1128405"></polyline>
                <polyline id="Path" fill="#0053A1" fill-rule="nonzero" points="216.700389 17.6031128 254.941634 17.6031128 270.824903 1.01167315 232.583658 1.01167315 216.700389 17.6031128"></polyline>
                <polyline id="Path" fill="#DD052B" fill-rule="nonzero" points="221.55642 51.4941634 259.696498 51.4941634 262.832685 48.3579767 224.692607 48.3579767 221.55642 51.4941634"></polyline>
                <polyline id="Path" fill="#DD052B" fill-rule="nonzero" points="228.7393 44.1089494 266.879377 44.1089494 271.330739 39.6575875 233.190661 39.6575875 228.7393 44.1089494"></polyline>
                <polyline id="Path" fill="#DD052B" fill-rule="nonzero" points="236.63035 35.9143969 274.871595 35.9143969 280.536965 30.1478599 242.396887 30.1478599 236.63035 35.9143969"></polyline>
                <polyline id="Path" fill="#DD052B" fill-rule="nonzero" points="245.431907 27.1128405 283.571984 27.1128405 290.552529 20.1322957 252.412451 20.1322957 245.431907 27.1128405"></polyline>
                <polyline id="Path" fill="#DD052B" fill-rule="nonzero" points="254.941634 17.6031128 293.081712 17.6031128 309.571984 1.01167315 270.824903 1.01167315 254.941634 17.6031128"></polyline>
            </g>
        </g>
    </g>
</svg>